PathFileType	3	(X/Y/Z)	walking_1__view1_aligned.trc
DataRate	CameraRate	NumFrames	NumMarkers	Units	OrigDataRate	OrigDataStartFrame	OrigNumFrames
100.0	100.0	9	19	mm	100.0	3053	6105
Frame#	Time	pelvis			neck			head			hip_left			hip_right			knee_left			knee_right			ankle_left			ankle_right			heel_left			heel_right			toe_left			toe_right			shoulder_left			shoulder_right			elbow_left			elbow_right			wrist_left			wrist_right			
		X1	Y1	Z1	X2	Y2	Z2	X3	Y3	Z3	X4	Y4	Z4	X5	Y5	Z5	X6	Y6	Z6	X7	Y7	Z7	X8	Y8	Z8	X9	Y9	Z9	X10	Y10	Z10	X11	Y11	Z11	X12	Y12	Z12	X13	Y13	Z13	X14	Y14	Z14	X15	Y15	Z15	X16	Y16	Z16	X17	Y17	Z17	X18	Y18	Z18	X19	Y19	Z19	
3053	30.52000	70.013752	936.880241	200.291543	26.255320	1495.657738	285.853402	20.989374	1600.917185	427.117524	147.273460	942.696203	203.147794	-7.245693	931.064320	197.435085	127.014849	517.747741	320.579609	-62.177192	513.188953	292.833217	117.842950	105.616698	307.310605	-70.634131	226.498157	0.039101	119.132795	53.490010	277.610354	-65.392678	215.692438	-56.000652	93.088803	67.403146	498.110489	-72.970538	59.181016	82.783857	213.747341	1461.975442	244.603699	-148.873046	1418.828706	253.078651	279.887857	1181.998984	170.014814	-190.441571	1126.288047	255.481604	302.528956	928.546902	194.590174	-191.996968	925.297898	415.442248
3054	30.53000	71.726003	937.340404	199.300478	28.018678	1496.308487	284.870145	22.063418	1601.507636	426.051903	149.065909	943.209262	202.176334	-5.613675	931.471581	196.424446	127.822730	517.074369	315.272303	-60.964090	514.907803	298.684950	117.533638	105.162718	296.595030	-69.526013	227.478047	10.408305	118.649044	53.311269	266.352943	-64.186434	216.267756	-45.102233	93.181464	65.373154	487.069960	-73.087806	61.980443	93.951615	215.896175	1462.110224	245.200943	-147.020832	1419.529306	250.612393	282.989293	1181.971398	173.231085	-188.555830	1126.807546	250.972995	304.389081	929.221537	201.479537	-192.500100	924.452321	408.066745
3055	30.54000	73.438255	937.800566	198.309412	29.782036	1496.959235	283.886888	23.137462	1602.098086	424.986283	150.858359	943.722321	201.204874	-3.981657	931.878842	195.413807	128.630610	516.400996	309.964998	-59.750989	516.626653	304.536682	117.224327	104.708738	285.879455	-68.417894	228.457937	20.777509	118.165294	53.132529	255.095531	-62.980190	216.843074	-34.203814	93.274124	63.343161	476.029431	-73.205073	64.779870	105.119373	218.045009	1462.245006	245.798188	-145.168617	1420.229906	248.146134	286.090729	1181.943812	176.447356	-186.670089	1127.327044	246.464386	306.249207	929.896172	208.368900	-193.003232	923.606744	400.691242
3056	30.55000	75.150506	938.260729	197.318346	31.545394	1497.609983	282.903631	24.211507	1602.688536	423.920662	152.650808	944.235379	200.233414	-2.349638	932.286102	194.403168	129.438491	515.727623	304.657693	-58.537888	518.345504	310.388415	116.915016	104.254758	275.163880	-67.309776	229.437827	31.146712	117.681543	52.953789	243.838120	-61.773946	217.418392	-23.305396	93.366785	61.313168	464.988902	-73.322341	67.579297	116.287131	220.193843	1462.379788	246.395432	-143.316403	1420.930506	245.679876	289.192165	1181.916226	179.663626	-184.784348	1127.846542	241.955776	308.109332	930.570807	215.258263	-193.506364	922.761167	393.315740
3057	30.56000	76.862757	938.720892	196.327280	33.308752	1498.260732	281.920375	25.285551	1603.278986	422.855042	154.443258	944.748438	199.261954	-0.717620	932.693363	193.392529	130.246371	515.054251	299.350387	-57.324786	520.064354	316.240147	116.605705	103.800778	264.448305	-66.201658	230.417717	41.515916	117.197792	52.775049	232.580709	-60.567701	217.993710	-12.406977	93.459446	59.283176	453.948373	-73.439609	70.378724	127.454889	222.342676	1462.514570	246.992677	-141.464188	1421.631107	243.213617	292.293601	1181.888640	182.879897	-182.898607	1128.366040	237.447167	309.969457	931.245442	222.147626	-194.009496	921.915589	385.940237
3058	30.57000	78.575008	939.181054	195.336214	35.072110	1498.911480	280.937118	26.359596	1603.869436	421.789421	156.235708	945.261497	198.290495	0.914398	933.100624	192.381890	131.054252	514.380878	294.043082	-56.111685	521.783204	322.091880	116.296394	103.346799	253.732729	-65.093540	231.397608	51.885120	116.714042	52.596309	221.323298	-59.361457	218.569028	-1.508558	93.552107	57.253183	442.907844	-73.556876	73.178151	138.622647	224.491510	1462.649352	247.589921	-139.611974	1422.331707	240.747359	295.395036	1181.861054	186.096168	-181.012865	1128.885539	232.938558	311.829583	931.920077	229.036989	-194.512629	921.070012	378.564734
3059	30.58000	80.287260	939.641217	194.345148	36.835468	1499.562228	279.953861	27.433640	1604.459886	420.723800	158.028157	945.774556	197.319035	2.546416	933.507885	191.371251	131.862132	513.707506	288.735777	-54.898584	523.502054	327.943612	115.987083	102.892819	243.017154	-63.985422	232.377498	62.254324	116.230291	52.417569	210.065887	-58.155213	219.144346	9.389861	93.644768	55.223190	431.867315	-73.674144	75.977578	149.790405	226.640344	1462.784134	248.187165	-137.759760	1423.032307	238.281101	298.496472	1181.833468	189.312438	-179.127124	1129.405037	228.429948	313.689708	932.594712	235.926352	-195.015761	920.224435	371.189231
3060	30.59000	81.999511	940.101380	193.354082	38.598826	1500.212977	278.970604	28.507684	1605.050336	419.658180	159.820607	946.287614	196.347575	4.178435	933.915145	190.360612	132.670013	513.034133	283.428472	-53.685482	525.220905	333.795345	115.677771	102.438839	232.301579	-62.877304	233.357388	72.623528	115.746541	52.238829	198.808476	-56.948969	219.719665	20.288280	93.737429	53.193197	420.826786	-73.791411	78.777005	160.958164	228.789178	1462.918916	248.784410	-135.907545	1423.732907	235.814842	301.597908	1181.805882	192.528709	-177.241383	1129.924535	223.921339	315.549833	933.269347	242.815715	-195.518893	919.378858	363.813729
3061	30.60000	83.190491	940.297149	191.897348	39.258166	1500.560646	277.772391	28.630274	1604.968933	418.463620	161.116721	946.500997	194.906980	5.264279	934.093301	188.887737	133.082869	512.146066	276.217256	-52.344441	526.665236	338.223251	115.184124	101.293247	221.874894	-61.806623	232.034246	85.873568	115.109422	51.115692	188.048870	-55.954641	217.317123	34.457151	93.548410	51.428508	410.884083	-73.147826	81.263116	176.885951	229.586272	1463.159057	249.187809	-134.825813	1424.225230	233.188480	303.424904	1181.901985	196.901050	-175.828411	1130.265787	219.173440	316.731234	934.209089	251.650694	-196.107972	917.675294	354.750624
